<svg xmlns="http://www.w3.org/2000/svg" xmlns:xlink="http://www.w3.org/1999/xlink"><defs><symbol viewBox="0 0 81 39" id="logo">
<title>G | M</title>
<desc>Created using Figma</desc>
<g id="logo_Canvas" transform="translate(917 996)">
<g id="logo_G | M">
<use xlink:href="#logo_path0_fill" transform="translate(-918 -1004)" fill="#FFFFFF" />
<use xlink:href="#logo_path1_fill" transform="translate(-918 -1004)" fill="#E40C2F" />
</g>
</g>
<defs>
<path id="logo_path0_fill" d="M 13.536 13.008C 14.952 13.008 16.116 13.212 17.028 13.62C 17.94 14.004 18.936 14.58 20.016 15.348C 20.328 15.588 20.568 15.708 20.736 15.708C 21.192 15.708 21.492 14.976 21.636 13.512L 22.464 13.512C 22.368 15.072 22.32 17.832 22.32 21.792L 21.492 21.792C 21.276 20.52 21.048 19.476 20.808 18.66C 20.568 17.82 20.196 17.088 19.692 16.464C 18.996 15.6 18.084 14.916 16.956 14.412C 15.852 13.908 14.688 13.656 13.464 13.656C 11.88 13.656 10.488 14.172 9.288 15.204C 8.088 16.236 7.164 17.712 6.516 19.632C 5.868 21.528 5.544 23.748 5.544 26.292C 5.544 30.612 6.228 33.78 7.596 35.796C 8.988 37.788 11.16 38.784 14.112 38.784C 15.552 38.784 16.8 38.412 17.856 37.668C 18.288 37.38 18.564 37.104 18.684 36.84C 18.828 36.552 18.9 36.168 18.9 35.688L 18.9 32.232C 18.9 31.224 18.804 30.492 18.612 30.036C 18.42 29.58 18.084 29.268 17.604 29.1C 17.124 28.932 16.344 28.824 15.264 28.776L 15.264 28.056C 16.512 28.128 18.204 28.164 20.34 28.164C 21.972 28.164 23.22 28.128 24.084 28.056L 24.084 28.776C 23.532 28.824 23.124 28.92 22.86 29.064C 22.62 29.208 22.452 29.484 22.356 29.892C 22.284 30.3 22.248 30.96 22.248 31.872L 22.248 39L 21.528 39C 21.504 38.52 21.408 38.064 21.24 37.632C 21.072 37.176 20.844 36.948 20.556 36.948C 20.412 36.948 20.268 36.984 20.124 37.056C 19.98 37.128 19.728 37.296 19.368 37.56C 18.528 38.208 17.652 38.688 16.74 39C 15.852 39.336 14.856 39.504 13.752 39.504C 11.28 39.504 9.156 39 7.38 37.992C 5.628 36.96 4.284 35.484 3.348 33.564C 2.412 31.644 1.944 29.352 1.944 26.688C 1.944 23.952 2.436 21.552 3.42 19.488C 4.428 17.4 5.808 15.804 7.56 14.7C 9.312 13.572 11.304 13.008 13.536 13.008ZM 81.0667 14.232C 80.2027 14.28 79.5667 14.376 79.1587 14.52C 78.7747 14.664 78.5107 14.94 78.3667 15.348C 78.2227 15.756 78.1507 16.416 78.1507 17.328L 78.1507 35.184C 78.1507 36.096 78.2227 36.756 78.3667 37.164C 78.5107 37.572 78.7747 37.848 79.1587 37.992C 79.5667 38.136 80.2027 38.232 81.0667 38.28L 81.0667 39C 79.9627 38.928 78.4387 38.892 76.4947 38.892C 74.4307 38.892 72.8947 38.928 71.8867 39L 71.8867 38.28C 72.7507 38.232 73.3747 38.136 73.7587 37.992C 74.1667 37.848 74.4427 37.572 74.5867 37.164C 74.7307 36.756 74.8027 36.096 74.8027 35.184L 74.8027 15.888L 66.1267 39.18L 65.5507 39.18L 56.4787 15.816L 56.4787 34.824C 56.4787 35.76 56.5507 36.456 56.6947 36.912C 56.8627 37.368 57.1747 37.704 57.6307 37.92C 58.0867 38.112 58.7947 38.232 59.7547 38.28L 59.7547 39C 58.8907 38.928 57.6667 38.892 56.0827 38.892C 54.6427 38.892 53.5267 38.928 52.7347 39L 52.7347 38.28C 53.5747 38.232 54.1987 38.112 54.6067 37.92C 55.0147 37.704 55.2907 37.368 55.4347 36.912C 55.5787 36.432 55.6507 35.736 55.6507 34.824L 55.6507 17.328C 55.6507 16.416 55.5787 15.756 55.4347 15.348C 55.2907 14.94 55.0147 14.664 54.6067 14.52C 54.2227 14.376 53.5987 14.28 52.7347 14.232L 52.7347 13.512C 53.5267 13.584 54.6427 13.62 56.0827 13.62C 57.3307 13.62 58.3507 13.584 59.1427 13.512L 67.0627 34.356L 74.8027 13.62L 76.4947 13.62C 78.4387 13.62 79.9627 13.584 81.0667 13.512L 81.0667 14.232Z" />
<path id="logo_path1_fill" d="M 38.9933 46.02L 37.5533 46.02L 37.5533 8.112L 38.9933 8.112L 38.9933 46.02Z" />
</defs>
</symbol><symbol viewBox="0 0 81 39" id="logo">
<title>G | M</title>
<desc>Created using Figma</desc>
<g id="logo_Canvas" transform="translate(917 996)">
<g id="logo_G | M">
<use xlink:href="#logo_path0_fill" transform="translate(-918 -1004)" fill="#FFFFFF" />
<use xlink:href="#logo_path1_fill" transform="translate(-918 -1004)" fill="#E40C2F" />
</g>
</g>
<defs>
<path id="logo_path0_fill" d="M 13.536 13.008C 14.952 13.008 16.116 13.212 17.028 13.62C 17.94 14.004 18.936 14.58 20.016 15.348C 20.328 15.588 20.568 15.708 20.736 15.708C 21.192 15.708 21.492 14.976 21.636 13.512L 22.464 13.512C 22.368 15.072 22.32 17.832 22.32 21.792L 21.492 21.792C 21.276 20.52 21.048 19.476 20.808 18.66C 20.568 17.82 20.196 17.088 19.692 16.464C 18.996 15.6 18.084 14.916 16.956 14.412C 15.852 13.908 14.688 13.656 13.464 13.656C 11.88 13.656 10.488 14.172 9.288 15.204C 8.088 16.236 7.164 17.712 6.516 19.632C 5.868 21.528 5.544 23.748 5.544 26.292C 5.544 30.612 6.228 33.78 7.596 35.796C 8.988 37.788 11.16 38.784 14.112 38.784C 15.552 38.784 16.8 38.412 17.856 37.668C 18.288 37.38 18.564 37.104 18.684 36.84C 18.828 36.552 18.9 36.168 18.9 35.688L 18.9 32.232C 18.9 31.224 18.804 30.492 18.612 30.036C 18.42 29.58 18.084 29.268 17.604 29.1C 17.124 28.932 16.344 28.824 15.264 28.776L 15.264 28.056C 16.512 28.128 18.204 28.164 20.34 28.164C 21.972 28.164 23.22 28.128 24.084 28.056L 24.084 28.776C 23.532 28.824 23.124 28.92 22.86 29.064C 22.62 29.208 22.452 29.484 22.356 29.892C 22.284 30.3 22.248 30.96 22.248 31.872L 22.248 39L 21.528 39C 21.504 38.52 21.408 38.064 21.24 37.632C 21.072 37.176 20.844 36.948 20.556 36.948C 20.412 36.948 20.268 36.984 20.124 37.056C 19.98 37.128 19.728 37.296 19.368 37.56C 18.528 38.208 17.652 38.688 16.74 39C 15.852 39.336 14.856 39.504 13.752 39.504C 11.28 39.504 9.156 39 7.38 37.992C 5.628 36.96 4.284 35.484 3.348 33.564C 2.412 31.644 1.944 29.352 1.944 26.688C 1.944 23.952 2.436 21.552 3.42 19.488C 4.428 17.4 5.808 15.804 7.56 14.7C 9.312 13.572 11.304 13.008 13.536 13.008ZM 81.0667 14.232C 80.2027 14.28 79.5667 14.376 79.1587 14.52C 78.7747 14.664 78.5107 14.94 78.3667 15.348C 78.2227 15.756 78.1507 16.416 78.1507 17.328L 78.1507 35.184C 78.1507 36.096 78.2227 36.756 78.3667 37.164C 78.5107 37.572 78.7747 37.848 79.1587 37.992C 79.5667 38.136 80.2027 38.232 81.0667 38.28L 81.0667 39C 79.9627 38.928 78.4387 38.892 76.4947 38.892C 74.4307 38.892 72.8947 38.928 71.8867 39L 71.8867 38.28C 72.7507 38.232 73.3747 38.136 73.7587 37.992C 74.1667 37.848 74.4427 37.572 74.5867 37.164C 74.7307 36.756 74.8027 36.096 74.8027 35.184L 74.8027 15.888L 66.1267 39.18L 65.5507 39.18L 56.4787 15.816L 56.4787 34.824C 56.4787 35.76 56.5507 36.456 56.6947 36.912C 56.8627 37.368 57.1747 37.704 57.6307 37.92C 58.0867 38.112 58.7947 38.232 59.7547 38.28L 59.7547 39C 58.8907 38.928 57.6667 38.892 56.0827 38.892C 54.6427 38.892 53.5267 38.928 52.7347 39L 52.7347 38.28C 53.5747 38.232 54.1987 38.112 54.6067 37.92C 55.0147 37.704 55.2907 37.368 55.4347 36.912C 55.5787 36.432 55.6507 35.736 55.6507 34.824L 55.6507 17.328C 55.6507 16.416 55.5787 15.756 55.4347 15.348C 55.2907 14.94 55.0147 14.664 54.6067 14.52C 54.2227 14.376 53.5987 14.28 52.7347 14.232L 52.7347 13.512C 53.5267 13.584 54.6427 13.62 56.0827 13.62C 57.3307 13.62 58.3507 13.584 59.1427 13.512L 67.0627 34.356L 74.8027 13.62L 76.4947 13.62C 78.4387 13.62 79.9627 13.584 81.0667 13.512L 81.0667 14.232Z" />
<path id="logo_path1_fill" d="M 38.9933 46.02L 37.5533 46.02L 37.5533 8.112L 38.9933 8.112L 38.9933 46.02Z" />
</defs>
</symbol><symbol viewBox="0 0 81 39" id="logo">
<title>G | M</title>
<desc>Created using Figma</desc>
<g id="logo_Canvas" transform="translate(917 996)">
<g id="logo_G | M">
<use xlink:href="#logo_path0_fill" transform="translate(-918 -1004)" fill="#FFFFFF" />
<use xlink:href="#logo_path1_fill" transform="translate(-918 -1004)" fill="#E40C2F" />
</g>
</g>
<defs>
<path id="logo_path0_fill" d="M 13.536 13.008C 14.952 13.008 16.116 13.212 17.028 13.62C 17.94 14.004 18.936 14.58 20.016 15.348C 20.328 15.588 20.568 15.708 20.736 15.708C 21.192 15.708 21.492 14.976 21.636 13.512L 22.464 13.512C 22.368 15.072 22.32 17.832 22.32 21.792L 21.492 21.792C 21.276 20.52 21.048 19.476 20.808 18.66C 20.568 17.82 20.196 17.088 19.692 16.464C 18.996 15.6 18.084 14.916 16.956 14.412C 15.852 13.908 14.688 13.656 13.464 13.656C 11.88 13.656 10.488 14.172 9.288 15.204C 8.088 16.236 7.164 17.712 6.516 19.632C 5.868 21.528 5.544 23.748 5.544 26.292C 5.544 30.612 6.228 33.78 7.596 35.796C 8.988 37.788 11.16 38.784 14.112 38.784C 15.552 38.784 16.8 38.412 17.856 37.668C 18.288 37.38 18.564 37.104 18.684 36.84C 18.828 36.552 18.9 36.168 18.9 35.688L 18.9 32.232C 18.9 31.224 18.804 30.492 18.612 30.036C 18.42 29.58 18.084 29.268 17.604 29.1C 17.124 28.932 16.344 28.824 15.264 28.776L 15.264 28.056C 16.512 28.128 18.204 28.164 20.34 28.164C 21.972 28.164 23.22 28.128 24.084 28.056L 24.084 28.776C 23.532 28.824 23.124 28.92 22.86 29.064C 22.62 29.208 22.452 29.484 22.356 29.892C 22.284 30.3 22.248 30.96 22.248 31.872L 22.248 39L 21.528 39C 21.504 38.52 21.408 38.064 21.24 37.632C 21.072 37.176 20.844 36.948 20.556 36.948C 20.412 36.948 20.268 36.984 20.124 37.056C 19.98 37.128 19.728 37.296 19.368 37.56C 18.528 38.208 17.652 38.688 16.74 39C 15.852 39.336 14.856 39.504 13.752 39.504C 11.28 39.504 9.156 39 7.38 37.992C 5.628 36.96 4.284 35.484 3.348 33.564C 2.412 31.644 1.944 29.352 1.944 26.688C 1.944 23.952 2.436 21.552 3.42 19.488C 4.428 17.4 5.808 15.804 7.56 14.7C 9.312 13.572 11.304 13.008 13.536 13.008ZM 81.0667 14.232C 80.2027 14.28 79.5667 14.376 79.1587 14.52C 78.7747 14.664 78.5107 14.94 78.3667 15.348C 78.2227 15.756 78.1507 16.416 78.1507 17.328L 78.1507 35.184C 78.1507 36.096 78.2227 36.756 78.3667 37.164C 78.5107 37.572 78.7747 37.848 79.1587 37.992C 79.5667 38.136 80.2027 38.232 81.0667 38.28L 81.0667 39C 79.9627 38.928 78.4387 38.892 76.4947 38.892C 74.4307 38.892 72.8947 38.928 71.8867 39L 71.8867 38.28C 72.7507 38.232 73.3747 38.136 73.7587 37.992C 74.1667 37.848 74.4427 37.572 74.5867 37.164C 74.7307 36.756 74.8027 36.096 74.8027 35.184L 74.8027 15.888L 66.1267 39.18L 65.5507 39.18L 56.4787 15.816L 56.4787 34.824C 56.4787 35.76 56.5507 36.456 56.6947 36.912C 56.8627 37.368 57.1747 37.704 57.6307 37.92C 58.0867 38.112 58.7947 38.232 59.7547 38.28L 59.7547 39C 58.8907 38.928 57.6667 38.892 56.0827 38.892C 54.6427 38.892 53.5267 38.928 52.7347 39L 52.7347 38.28C 53.5747 38.232 54.1987 38.112 54.6067 37.92C 55.0147 37.704 55.2907 37.368 55.4347 36.912C 55.5787 36.432 55.6507 35.736 55.6507 34.824L 55.6507 17.328C 55.6507 16.416 55.5787 15.756 55.4347 15.348C 55.2907 14.94 55.0147 14.664 54.6067 14.52C 54.2227 14.376 53.5987 14.28 52.7347 14.232L 52.7347 13.512C 53.5267 13.584 54.6427 13.62 56.0827 13.62C 57.3307 13.62 58.3507 13.584 59.1427 13.512L 67.0627 34.356L 74.8027 13.62L 76.4947 13.62C 78.4387 13.62 79.9627 13.584 81.0667 13.512L 81.0667 14.232Z" />
<path id="logo_path1_fill" d="M 38.9933 46.02L 37.5533 46.02L 37.5533 8.112L 38.9933 8.112L 38.9933 46.02Z" />
</defs>
</symbol><symbol viewBox="0 0 81 39" id="logo">
<title>G | M</title>
<desc>Created using Figma</desc>
<g id="logo_Canvas" transform="translate(917 996)">
<g id="logo_G | M">
<use xlink:href="#logo_path0_fill" transform="translate(-918 -1004)" fill="#FFFFFF" />
<use xlink:href="#logo_path1_fill" transform="translate(-918 -1004)" fill="#E40C2F" />
</g>
</g>
<defs>
<path id="logo_path0_fill" d="M 13.536 13.008C 14.952 13.008 16.116 13.212 17.028 13.62C 17.94 14.004 18.936 14.58 20.016 15.348C 20.328 15.588 20.568 15.708 20.736 15.708C 21.192 15.708 21.492 14.976 21.636 13.512L 22.464 13.512C 22.368 15.072 22.32 17.832 22.32 21.792L 21.492 21.792C 21.276 20.52 21.048 19.476 20.808 18.66C 20.568 17.82 20.196 17.088 19.692 16.464C 18.996 15.6 18.084 14.916 16.956 14.412C 15.852 13.908 14.688 13.656 13.464 13.656C 11.88 13.656 10.488 14.172 9.288 15.204C 8.088 16.236 7.164 17.712 6.516 19.632C 5.868 21.528 5.544 23.748 5.544 26.292C 5.544 30.612 6.228 33.78 7.596 35.796C 8.988 37.788 11.16 38.784 14.112 38.784C 15.552 38.784 16.8 38.412 17.856 37.668C 18.288 37.38 18.564 37.104 18.684 36.84C 18.828 36.552 18.9 36.168 18.9 35.688L 18.9 32.232C 18.9 31.224 18.804 30.492 18.612 30.036C 18.42 29.58 18.084 29.268 17.604 29.1C 17.124 28.932 16.344 28.824 15.264 28.776L 15.264 28.056C 16.512 28.128 18.204 28.164 20.34 28.164C 21.972 28.164 23.22 28.128 24.084 28.056L 24.084 28.776C 23.532 28.824 23.124 28.92 22.86 29.064C 22.62 29.208 22.452 29.484 22.356 29.892C 22.284 30.3 22.248 30.96 22.248 31.872L 22.248 39L 21.528 39C 21.504 38.52 21.408 38.064 21.24 37.632C 21.072 37.176 20.844 36.948 20.556 36.948C 20.412 36.948 20.268 36.984 20.124 37.056C 19.98 37.128 19.728 37.296 19.368 37.56C 18.528 38.208 17.652 38.688 16.74 39C 15.852 39.336 14.856 39.504 13.752 39.504C 11.28 39.504 9.156 39 7.38 37.992C 5.628 36.96 4.284 35.484 3.348 33.564C 2.412 31.644 1.944 29.352 1.944 26.688C 1.944 23.952 2.436 21.552 3.42 19.488C 4.428 17.4 5.808 15.804 7.56 14.7C 9.312 13.572 11.304 13.008 13.536 13.008ZM 81.0667 14.232C 80.2027 14.28 79.5667 14.376 79.1587 14.52C 78.7747 14.664 78.5107 14.94 78.3667 15.348C 78.2227 15.756 78.1507 16.416 78.1507 17.328L 78.1507 35.184C 78.1507 36.096 78.2227 36.756 78.3667 37.164C 78.5107 37.572 78.7747 37.848 79.1587 37.992C 79.5667 38.136 80.2027 38.232 81.0667 38.28L 81.0667 39C 79.9627 38.928 78.4387 38.892 76.4947 38.892C 74.4307 38.892 72.8947 38.928 71.8867 39L 71.8867 38.28C 72.7507 38.232 73.3747 38.136 73.7587 37.992C 74.1667 37.848 74.4427 37.572 74.5867 37.164C 74.7307 36.756 74.8027 36.096 74.8027 35.184L 74.8027 15.888L 66.1267 39.18L 65.5507 39.18L 56.4787 15.816L 56.4787 34.824C 56.4787 35.76 56.5507 36.456 56.6947 36.912C 56.8627 37.368 57.1747 37.704 57.6307 37.92C 58.0867 38.112 58.7947 38.232 59.7547 38.28L 59.7547 39C 58.8907 38.928 57.6667 38.892 56.0827 38.892C 54.6427 38.892 53.5267 38.928 52.7347 39L 52.7347 38.28C 53.5747 38.232 54.1987 38.112 54.6067 37.92C 55.0147 37.704 55.2907 37.368 55.4347 36.912C 55.5787 36.432 55.6507 35.736 55.6507 34.824L 55.6507 17.328C 55.6507 16.416 55.5787 15.756 55.4347 15.348C 55.2907 14.94 55.0147 14.664 54.6067 14.52C 54.2227 14.376 53.5987 14.28 52.7347 14.232L 52.7347 13.512C 53.5267 13.584 54.6427 13.62 56.0827 13.62C 57.3307 13.62 58.3507 13.584 59.1427 13.512L 67.0627 34.356L 74.8027 13.62L 76.4947 13.62C 78.4387 13.62 79.9627 13.584 81.0667 13.512L 81.0667 14.232Z" />
<path id="logo_path1_fill" d="M 38.9933 46.02L 37.5533 46.02L 37.5533 8.112L 38.9933 8.112L 38.9933 46.02Z" />
</defs>
</symbol><symbol viewBox="0 0 81 39" id="logo">
<title>G | M</title>
<desc>Created using Figma</desc>
<g id="logo_Canvas" transform="translate(917 996)">
<g id="logo_G | M">
<use xlink:href="#logo_path0_fill" transform="translate(-918 -1004)" fill="#FFFFFF" />
<use xlink:href="#logo_path1_fill" transform="translate(-918 -1004)" fill="#E40C2F" />
</g>
</g>
<defs>
<path id="logo_path0_fill" d="M 13.536 13.008C 14.952 13.008 16.116 13.212 17.028 13.62C 17.94 14.004 18.936 14.58 20.016 15.348C 20.328 15.588 20.568 15.708 20.736 15.708C 21.192 15.708 21.492 14.976 21.636 13.512L 22.464 13.512C 22.368 15.072 22.32 17.832 22.32 21.792L 21.492 21.792C 21.276 20.52 21.048 19.476 20.808 18.66C 20.568 17.82 20.196 17.088 19.692 16.464C 18.996 15.6 18.084 14.916 16.956 14.412C 15.852 13.908 14.688 13.656 13.464 13.656C 11.88 13.656 10.488 14.172 9.288 15.204C 8.088 16.236 7.164 17.712 6.516 19.632C 5.868 21.528 5.544 23.748 5.544 26.292C 5.544 30.612 6.228 33.78 7.596 35.796C 8.988 37.788 11.16 38.784 14.112 38.784C 15.552 38.784 16.8 38.412 17.856 37.668C 18.288 37.38 18.564 37.104 18.684 36.84C 18.828 36.552 18.9 36.168 18.9 35.688L 18.9 32.232C 18.9 31.224 18.804 30.492 18.612 30.036C 18.42 29.58 18.084 29.268 17.604 29.1C 17.124 28.932 16.344 28.824 15.264 28.776L 15.264 28.056C 16.512 28.128 18.204 28.164 20.34 28.164C 21.972 28.164 23.22 28.128 24.084 28.056L 24.084 28.776C 23.532 28.824 23.124 28.92 22.86 29.064C 22.62 29.208 22.452 29.484 22.356 29.892C 22.284 30.3 22.248 30.96 22.248 31.872L 22.248 39L 21.528 39C 21.504 38.52 21.408 38.064 21.24 37.632C 21.072 37.176 20.844 36.948 20.556 36.948C 20.412 36.948 20.268 36.984 20.124 37.056C 19.98 37.128 19.728 37.296 19.368 37.56C 18.528 38.208 17.652 38.688 16.74 39C 15.852 39.336 14.856 39.504 13.752 39.504C 11.28 39.504 9.156 39 7.38 37.992C 5.628 36.96 4.284 35.484 3.348 33.564C 2.412 31.644 1.944 29.352 1.944 26.688C 1.944 23.952 2.436 21.552 3.42 19.488C 4.428 17.4 5.808 15.804 7.56 14.7C 9.312 13.572 11.304 13.008 13.536 13.008ZM 81.0667 14.232C 80.2027 14.28 79.5667 14.376 79.1587 14.52C 78.7747 14.664 78.5107 14.94 78.3667 15.348C 78.2227 15.756 78.1507 16.416 78.1507 17.328L 78.1507 35.184C 78.1507 36.096 78.2227 36.756 78.3667 37.164C 78.5107 37.572 78.7747 37.848 79.1587 37.992C 79.5667 38.136 80.2027 38.232 81.0667 38.28L 81.0667 39C 79.9627 38.928 78.4387 38.892 76.4947 38.892C 74.4307 38.892 72.8947 38.928 71.8867 39L 71.8867 38.28C 72.7507 38.232 73.3747 38.136 73.7587 37.992C 74.1667 37.848 74.4427 37.572 74.5867 37.164C 74.7307 36.756 74.8027 36.096 74.8027 35.184L 74.8027 15.888L 66.1267 39.18L 65.5507 39.18L 56.4787 15.816L 56.4787 34.824C 56.4787 35.76 56.5507 36.456 56.6947 36.912C 56.8627 37.368 57.1747 37.704 57.6307 37.92C 58.0867 38.112 58.7947 38.232 59.7547 38.28L 59.7547 39C 58.8907 38.928 57.6667 38.892 56.0827 38.892C 54.6427 38.892 53.5267 38.928 52.7347 39L 52.7347 38.28C 53.5747 38.232 54.1987 38.112 54.6067 37.92C 55.0147 37.704 55.2907 37.368 55.4347 36.912C 55.5787 36.432 55.6507 35.736 55.6507 34.824L 55.6507 17.328C 55.6507 16.416 55.5787 15.756 55.4347 15.348C 55.2907 14.94 55.0147 14.664 54.6067 14.52C 54.2227 14.376 53.5987 14.28 52.7347 14.232L 52.7347 13.512C 53.5267 13.584 54.6427 13.62 56.0827 13.62C 57.3307 13.62 58.3507 13.584 59.1427 13.512L 67.0627 34.356L 74.8027 13.62L 76.4947 13.62C 78.4387 13.62 79.9627 13.584 81.0667 13.512L 81.0667 14.232Z" />
<path id="logo_path1_fill" d="M 38.9933 46.02L 37.5533 46.02L 37.5533 8.112L 38.9933 8.112L 38.9933 46.02Z" />
</defs>
</symbol><symbol viewBox="0 0 39 74" id="mouse">
<title>mouse</title>
<desc>Created using Figma</desc>
<g id="mouse_Canvas" transform="translate(910 1370)">
<g id="mouse_mouse">
<g id="mouse_Union">
<use xlink:href="#mouse_path0_fill" transform="translate(-910 -1370)" />
</g>
<g id="mouse_Union (Stroke)">
<use xlink:href="#mouse_path1_fill" transform="translate(-910 -1370)" />
<use xlink:href="#mouse_path1_fill" transform="translate(-910 -1370)" fill="url(#mouse_paint2_linear)" />
</g>
</g>
</g>
<defs>

<path id="mouse_path0_fill" fill-rule="evenodd" d="M 19.5 0C 26.3751 0 31.6013 2.00183 35.0336 5.94971C 38.4848 9.91919 39 14.5697 39 16.9886L 39 45.0115C 39 47.4304 38.4848 52.0809 35.0336 56.0504C 31.7697 59.8046 26.8835 61.799 20.5 61.9856L 20.5 70.5858L 25.1569 65.929C 25.5474 65.5385 26.1805 65.5385 26.571 65.929C 26.9616 66.3195 26.9616 66.9526 26.571 67.3431L 20.2071 73.7072C 19.8166 74.0977 19.1834 74.0977 18.7929 73.7072L 12.429 67.3431C 12.0384 66.9526 12.0384 66.3195 12.429 65.929C 12.8195 65.5385 13.4526 65.5385 13.8431 65.929L 18.5 70.5858L 18.5 61.9856C 12.1165 61.799 7.23035 59.8046 3.96637 56.0504C 0.515198 52.0809 0 47.4304 0 45.0115L 0 16.9886C 0 14.5697 0.515198 9.91919 3.96637 5.94971C 7.39874 2.00183 12.6249 0 19.5 0ZM 20.5 59.9845L 20.5 40C 20.5 39.4478 20.0523 39 19.5 39C 18.9477 39 18.5 39.4478 18.5 40L 18.5 59.9845C 2.84735 59.4934 2.03967 47.4631 2.03967 45.0115L 2.03967 16.9886C 2.03967 14.5381 2.84918 2.5199 18.4802 2.01819L 18.4802 9.21704C 16.4201 9.67383 14.8767 11.4817 14.8767 13.6378L 14.8767 19.0667C 14.8767 21.2228 16.4201 23.0306 18.4802 23.4874L 18.4802 31.7046C 18.4802 32.257 18.9366 32.7046 19.5 32.7046C 20.0634 32.7046 20.5198 32.257 20.5198 31.7046L 20.5198 23.4874C 22.5799 23.0306 24.1233 21.2228 24.1233 19.0667L 24.1233 13.6378C 24.1233 11.4817 22.5799 9.67383 20.5198 9.21704L 20.5198 2.01819C 36.151 2.52002 36.9603 14.5381 36.9603 16.9886L 36.9603 45.0115C 36.9603 47.4631 36.1526 59.4934 20.5 59.9845ZM 16.9164 19.0667C 16.9164 20.4636 18.0754 21.6 19.5 21.6C 20.9246 21.6 22.0836 20.4636 22.0836 19.0667L 22.0836 13.6378C 22.0836 12.241 20.9246 11.1045 19.5 11.1045C 18.0754 11.1045 16.9164 12.241 16.9164 13.6378L 16.9164 19.0667Z" />
<path id="mouse_path1_fill" fill-rule="evenodd" d="M 18.5 40C 18.5 39.4478 18.9477 39 19.5 39C 20.0523 39 20.5 39.4478 20.5 40L 20.5 59.9845C 21.1956 59.9627 21.8618 59.9181 22.5 59.8525C 36.2228 58.4431 36.9603 47.3542 36.9603 45.0115L 36.9603 16.9886C 36.9603 14.6471 36.2214 3.57071 22.5198 2.15175C 21.8817 2.08566 21.2154 2.04052 20.5198 2.01819L 20.5198 9.21704C 22.5799 9.67383 24.1233 11.4817 24.1233 13.6378L 24.1233 19.0667C 24.1233 21.2228 22.5799 23.0306 20.5198 23.4874L 20.5198 31.7046C 20.5198 32.257 20.0634 32.7046 19.5 32.7046C 18.9366 32.7046 18.4802 32.257 18.4802 31.7046L 18.4802 23.4874C 16.4201 23.0306 14.8767 21.2228 14.8767 19.0667L 14.8767 13.6378C 14.8767 11.4817 16.4201 9.67383 18.4802 9.21704L 18.4802 2.01819C 17.7846 2.04052 17.1183 2.08565 16.4802 2.15173C 2.77874 3.57061 2.03967 14.6471 2.03967 16.9886L 2.03967 45.0115C 2.03967 47.3542 2.77716 58.4431 16.5 59.8525C 17.1382 59.9181 17.8044 59.9627 18.5 59.9845L 18.5 40ZM 18.7882 0.00727124C 19.0235 0.00242453 19.2607 0 19.5 0C 19.7393 0 19.9767 0.00242619 20.212 0.00727622C 20.3017 0.00912411 20.3911 0.0113239 20.4802 0.0138754C 26.8734 0.196986 31.7663 2.19164 35.0336 5.94971C 38.4848 9.91919 39 14.5697 39 16.9886L 39 45.0115C 39 47.4304 38.4848 52.0809 35.0336 56.0504C 31.7697 59.8046 26.8835 61.799 20.5 61.9856L 20.5 70.5858L 25.1506 65.9352L 25.1568 65.9289M 25.1568 65.9289C 25.5474 65.5386 26.1806 65.5385 26.571 65.929C 26.9616 66.3195 26.9616 66.9526 26.571 67.3431L 20.2071 73.7072C 20.2068 73.7074 20.2065 73.7077 20.2063 73.708C 19.816 74.0974 19.184 74.0974 18.7937 73.708C 18.7935 73.7077 18.7932 73.7074 18.7929 73.7072L 12.429 67.3431C 12.0384 66.9526 12.0384 66.3195 12.429 65.929C 12.8194 65.5385 13.4525 65.5384 13.8431 65.9288C 13.843 65.9288 13.8431 65.9289 13.8431 65.9288L 13.8495 65.9353L 18.5 70.5858L 18.5 61.9856C 12.1165 61.799 7.23035 59.8046 3.96637 56.0504C 0.515198 52.0809 0 47.4304 0 45.0115L 0 16.9886C 0 14.5697 0.515198 9.91919 3.96637 5.94971C 7.23372 2.19164 12.1266 0.196986 18.5198 0.0138754C 18.609 0.0113216 18.6985 0.00912016 18.7882 0.00727124M 19.5 21.6C 18.0754 21.6 16.9164 20.4636 16.9164 19.0667L 16.9164 13.6378C 16.9164 12.241 18.0754 11.1045 19.5 11.1045C 20.9246 11.1045 22.0836 12.241 22.0836 13.6378L 22.0836 19.0667C 22.0836 20.4636 20.9246 21.6 19.5 21.6Z" />
</defs>
</symbol><linearGradient id="mouse_paint2_linear" x1="0" y1="0" x2="1" y2="0" gradientUnits="userSpaceOnUse" gradientTransform="matrix(2.38806e-15 62 -39 3.79641e-15 39 0)">
<stop offset="0" stop-color="#FFFFFF" />
<stop offset="1" stop-color="#FFFFFF" stop-opacity="0" />
</linearGradient></defs></svg>